<?xml version="1.0" encoding="UTF-8" standalone="no"?>
<svg width="540px" height="65px" viewBox="0 0 540 65" version="1.1" xmlns="http://www.w3.org/2000/svg" xmlns:xlink="http://www.w3.org/1999/xlink">
    <!-- Generator: Sketch 47 (45396) - http://www.bohemiancoding.com/sketch -->
    <title>miz-logo_v1_schrift_rechts</title>
    <desc>Created with Sketch.</desc>
    <defs></defs>
    <g id="Page-1" stroke="none" stroke-width="1" fill="none" fill-rule="evenodd">
        <g id="miz-logo_v1_schrift_rechts">
            <path d="M73.991,57.31 C73.123,57.31 72.75,56.937 72.75,56.068 L72.75,1.885 C72.75,1.016 73.123,0.644 73.991,0.644 L85.66,0.644 C86.529,0.644 86.902,1.016 86.902,1.885 L86.902,56.068 C86.902,56.937 86.529,57.31 85.66,57.31 L73.991,57.31 Z" id="Fill-1" fill="#77589C"></path>
            <path d="M147.669,4.551 L125.945,40.552 C125.076,41.917 124.58,42.786 124.58,43.282 C124.58,43.903 125.076,44.275 125.945,44.275 L147.296,44.275 C148.166,44.275 148.538,44.648 148.538,45.517 L148.538,56.068 C148.538,56.937 148.166,57.31 147.296,57.31 L101.117,57.31 C100.249,57.31 99.751,56.937 99.751,56.316 C99.751,55.819 100.249,55.075 101.117,53.585 L122.717,17.585 C123.586,16.22 124.207,15.103 124.207,14.607 C124.207,13.985 123.71,13.612 122.841,13.612 L103.724,13.612 C102.855,13.612 102.483,13.241 102.483,12.372 L102.483,1.819 C102.483,0.95 102.855,0.579 103.724,0.579 L147.793,0.579 C148.662,0.579 149.159,0.95 149.159,1.571 C149.159,2.067 148.538,3.185 147.669,4.551" id="Fill-2" fill="#0DFFC1"></path>
            <path d="M56.139,0.644 L44.47,0.644 C44.357,0.644 44.276,0.668 44.18,0.681 L44.088,0.681 C44.04,0.681 43.988,0.7 43.937,0.712 C43.927,0.715 43.914,0.715 43.903,0.719 C43.585,0.803 43.242,1.077 43.076,1.415 C42.877,1.818 42.433,2.721 42.088,3.42 L31.654,24.617 L31.66,24.606 C30.004,27.996 29.269,29.888 29.269,29.888 L28.852,29.888 C28.852,29.888 28.116,27.996 26.46,24.606 L15.894,3.081 C15.55,2.382 15.14,1.547 14.982,1.227 C14.824,0.906 14.301,0.644 13.818,0.644 L1.933,0.644 C1.928,0.644 1.925,0.645 1.92,0.645 C1.812,0.647 1.714,0.661 1.623,0.683 C0.991,0.774 0.691,1.136 0.691,1.885 L0.691,56.068 C0.691,56.937 1.065,57.31 1.933,57.31 L13.602,57.31 C14.471,57.31 14.844,56.937 14.844,56.068 L14.844,53.868 C14.844,40.326 14.677,29.888 14.677,29.888 L14.969,29.888 C16.859,35.267 18.162,36.098 21.083,42.494 L21.333,43.003 C21.626,43.599 22.335,44.079 23.021,44.215 C23.12,44.246 23.228,44.266 23.35,44.27 C23.358,44.27 23.367,44.275 23.376,44.275 L34.736,44.275 C34.745,44.275 34.754,44.27 34.763,44.27 C34.885,44.266 34.993,44.246 35.091,44.215 C35.778,44.079 36.486,43.599 36.78,43.003 L36.988,42.579 C39.91,36.184 41.212,35.267 43.103,29.888 L43.395,29.888 C43.395,29.888 43.228,40.326 43.228,53.868 L43.228,56.068 C43.228,56.937 43.601,57.31 44.47,57.31 L56.139,57.31 C57.007,57.31 57.38,56.937 57.38,56.068 L57.38,1.885 C57.38,1.016 57.007,0.644 56.139,0.644" id="Fill-3" fill="#0DFFC1"></path>
            <path d="M192.709,21.998 L190.738,21.998 C190.5,21.998 190.397,21.896 190.397,21.658 L190.397,14.655 C190.397,11.425 190.534,8.502 190.704,6.768 L190.567,6.733 C190.432,7.244 190.058,8.365 189.718,9.113 L185.434,18.667 C185.366,18.802 185.264,18.87 185.128,18.87 L184.21,18.87 C184.074,18.87 183.972,18.802 183.904,18.667 L179.655,9.113 C179.349,8.434 178.975,7.414 178.805,6.733 L178.669,6.768 C178.873,8.569 178.975,11.357 178.975,14.655 L178.975,21.658 C178.975,21.896 178.873,21.998 178.635,21.998 L176.663,21.998 C176.425,21.998 176.323,21.896 176.323,21.658 L176.323,0.92 C176.323,0.682 176.425,0.58 176.663,0.58 L178.533,0.58 C178.669,0.58 178.771,0.649 178.839,0.784 L184.176,13.329 C184.278,13.533 184.55,14.417 184.618,14.689 L184.72,14.689 C184.788,14.417 185.094,13.567 185.196,13.329 L190.534,0.784 C190.602,0.649 190.704,0.58 190.839,0.58 L192.709,0.58 C192.947,0.58 193.049,0.682 193.049,0.92 L193.049,21.658 C193.049,21.896 192.947,21.998 192.709,21.998" id="Fill-4" fill="#0DFFC1"></path>
            <path d="M207.738,11.969 C207.738,10.235 206.344,8.808 204.407,8.808 C202.299,8.808 201.075,10.303 201.075,12.139 L201.075,12.513 C201.075,12.683 201.245,12.717 201.415,12.717 L207.398,12.717 C207.636,12.717 207.738,12.615 207.738,12.377 L207.738,11.969 Z M210.084,14.723 L201.415,14.723 C201.177,14.723 201.075,14.825 201.075,15.063 L201.075,16.661 C201.075,18.463 202.571,19.992 204.407,19.992 C205.563,19.992 206.718,19.313 207.432,18.055 C207.534,17.884 207.704,17.817 207.874,17.919 L209.676,18.837 C209.88,18.939 209.914,19.074 209.812,19.278 C209.506,19.822 209.166,20.366 208.69,20.808 C207.772,21.726 206.446,22.338 204.407,22.338 C200.735,22.338 198.389,20.026 198.389,16.661 L198.389,12.139 C198.389,8.909 200.735,6.496 204.407,6.496 C208.01,6.496 210.424,8.876 210.424,12.139 L210.424,14.383 C210.424,14.621 210.322,14.723 210.084,14.723 L210.084,14.723 Z" id="Fill-5" fill="#0DFFC1"></path>
            <path d="M224.262,12.479 C224.262,10.677 222.766,9.148 220.93,9.148 C219.094,9.148 217.598,10.643 217.598,12.479 L217.598,16.321 C217.598,18.123 219.094,19.652 220.93,19.652 C222.732,19.652 224.262,18.156 224.262,16.321 L224.262,12.479 Z M226.607,21.998 L224.976,21.998 C224.738,21.998 224.636,21.896 224.636,21.658 L224.636,20.706 C224.636,20.332 224.295,20.196 224.023,20.468 C223.004,21.556 221.78,21.998 220.93,21.998 C217.258,21.998 214.913,19.652 214.913,16.321 L214.913,12.479 C214.913,9.148 217.394,6.836 220.59,6.836 C221.61,6.836 222.8,7.244 223.684,8.297 C223.921,8.604 224.262,8.467 224.262,8.06 L224.262,0.92 C224.262,0.682 224.364,0.58 224.602,0.58 L226.607,0.58 C226.845,0.58 226.947,0.682 226.947,0.92 L226.947,21.658 C226.947,21.896 226.845,21.998 226.607,21.998 L226.607,21.998 Z" id="Fill-6" fill="#0DFFC1"></path>
            <path d="M234.802,21.998 L232.796,21.998 C232.559,21.998 232.457,21.896 232.457,21.658 L232.457,7.176 C232.457,6.938 232.559,6.836 232.796,6.836 L234.802,6.836 C235.041,6.836 235.143,6.938 235.143,7.176 L235.143,21.658 C235.143,21.896 235.041,21.998 234.802,21.998 Z M233.783,3.606 C232.831,3.606 232.117,2.858 232.117,1.906 C232.117,0.988 232.865,0.24 233.783,0.24 C234.734,0.24 235.482,0.954 235.482,1.906 C235.482,2.824 234.734,3.606 233.783,3.606 L233.783,3.606 Z" id="Fill-7" fill="#0DFFC1"></path>
            <path d="M249.49,11.969 C249.49,10.235 248.096,8.808 246.158,8.808 C244.05,8.808 242.826,10.303 242.826,12.139 L242.826,12.513 C242.826,12.683 242.996,12.717 243.167,12.717 L249.15,12.717 C249.388,12.717 249.49,12.615 249.49,12.377 L249.49,11.969 Z M251.835,14.723 L243.167,14.723 C242.928,14.723 242.826,14.825 242.826,15.063 L242.826,16.661 C242.826,18.463 244.322,19.992 246.158,19.992 C247.314,19.992 248.47,19.313 249.184,18.055 C249.286,17.884 249.456,17.817 249.625,17.919 L251.427,18.837 C251.631,18.939 251.666,19.074 251.563,19.278 C251.257,19.822 250.917,20.366 250.441,20.808 C249.523,21.726 248.198,22.338 246.158,22.338 C242.486,22.338 240.141,20.026 240.141,16.661 L240.141,12.139 C240.141,8.909 242.486,6.496 246.158,6.496 C249.762,6.496 252.175,8.876 252.175,12.139 L252.175,14.383 C252.175,14.621 252.073,14.723 251.835,14.723 L251.835,14.723 Z" id="Fill-8" fill="#0DFFC1"></path>
            <path d="M268.903,21.998 L266.897,21.998 C266.66,21.998 266.558,21.896 266.558,21.658 L266.558,12.479 C266.558,10.677 265.028,9.148 263.192,9.148 C261.356,9.148 259.86,10.643 259.86,12.479 L259.86,21.658 C259.86,21.896 259.758,21.998 259.52,21.998 L257.514,21.998 C257.276,21.998 257.174,21.896 257.174,21.658 L257.174,7.176 C257.174,6.938 257.276,6.836 257.514,6.836 L259.18,6.836 C259.418,6.836 259.52,6.938 259.52,7.176 L259.52,8.06 C259.52,8.434 259.86,8.604 260.098,8.297 C261.016,7.21 262.138,6.836 263.192,6.836 C266.863,6.836 269.243,9.148 269.243,12.479 L269.243,21.658 C269.243,21.896 269.141,21.998 268.903,21.998" id="Fill-9" fill="#0DFFC1"></path>
            <path d="M276.928,21.998 L274.922,21.998 C274.684,21.998 274.582,21.896 274.582,21.658 L274.582,7.176 C274.582,6.938 274.684,6.836 274.922,6.836 L276.928,6.836 C277.166,6.836 277.268,6.938 277.268,7.176 L277.268,21.658 C277.268,21.896 277.166,21.998 276.928,21.998 Z M275.908,3.606 C274.956,3.606 274.242,2.858 274.242,1.906 C274.242,0.988 274.99,0.24 275.908,0.24 C276.86,0.24 277.608,0.954 277.608,1.906 C277.608,2.824 276.86,3.606 275.908,3.606 L275.908,3.606 Z" id="Fill-10" fill="#0DFFC1"></path>
            <path d="M294.505,21.998 L292.499,21.998 C292.261,21.998 292.159,21.896 292.159,21.658 L292.159,12.479 C292.159,10.677 290.629,9.148 288.793,9.148 C286.958,9.148 285.462,10.643 285.462,12.479 L285.462,21.658 C285.462,21.896 285.36,21.998 285.122,21.998 L283.116,21.998 C282.878,21.998 282.776,21.896 282.776,21.658 L282.776,7.176 C282.776,6.938 282.878,6.836 283.116,6.836 L284.782,6.836 C285.02,6.836 285.122,6.938 285.122,7.176 L285.122,8.06 C285.122,8.434 285.462,8.604 285.7,8.297 C286.618,7.21 287.74,6.836 288.793,6.836 C292.465,6.836 294.845,9.148 294.845,12.479 L294.845,21.658 C294.845,21.896 294.743,21.998 294.505,21.998" id="Fill-11" fill="#0DFFC1"></path>
            <path d="M311.913,21.998 L309.907,21.998 C309.669,21.998 309.567,21.896 309.567,21.658 L309.567,12.479 C309.567,10.677 308.037,9.148 306.201,9.148 C304.365,9.148 302.87,10.643 302.87,12.479 L302.87,21.658 C302.87,21.896 302.768,21.998 302.529,21.998 L300.524,21.998 C300.286,21.998 300.184,21.896 300.184,21.658 L300.184,7.176 C300.184,6.938 300.286,6.836 300.524,6.836 L302.189,6.836 C302.427,6.836 302.529,6.938 302.529,7.176 L302.529,8.06 C302.529,8.434 302.87,8.604 303.107,8.297 C304.025,7.21 305.147,6.836 306.201,6.836 C309.873,6.836 312.252,9.148 312.252,12.479 L312.252,21.658 C312.252,21.896 312.15,21.998 311.913,21.998" id="Fill-12" fill="#0DFFC1"></path>
            <path d="M326.431,11.969 C326.431,10.235 325.037,8.808 323.1,8.808 C320.991,8.808 319.768,10.303 319.768,12.139 L319.768,16.865 C319.768,18.599 321.161,20.026 323.1,20.026 C325.207,20.026 326.431,18.53 326.431,16.694 L326.431,11.969 Z M323.1,22.338 C319.495,22.338 317.082,19.958 317.082,16.694 L317.082,12.139 C317.082,8.909 319.428,6.496 323.1,6.496 C326.703,6.496 329.116,8.876 329.116,12.139 L329.116,16.694 C329.116,19.924 326.771,22.338 323.1,22.338 L323.1,22.338 Z" id="Fill-13" fill="#0DFFC1"></path>
            <path d="M340.201,21.794 C340.133,21.93 340.031,21.998 339.895,21.998 L338.264,21.998 C338.127,21.998 338.025,21.93 337.957,21.794 L332.076,7.312 C331.939,7.005 332.076,6.836 332.381,6.836 L334.489,6.836 C334.625,6.836 334.727,6.903 334.795,7.04 L338.637,16.763 C338.705,16.933 338.977,17.782 339.011,18.089 L339.146,18.089 C339.181,17.782 339.453,16.933 339.521,16.763 L343.328,7.04 C343.396,6.903 343.498,6.836 343.635,6.836 L345.742,6.836 C346.049,6.836 346.184,7.005 346.049,7.312 L340.201,21.794" id="Fill-14" fill="#0DFFC1"></path>
            <path d="M357.643,15.913 C357.643,15.675 357.541,15.573 357.303,15.573 L353.121,15.573 C352.135,15.573 351.354,16.355 351.354,17.34 L351.354,17.884 C351.354,18.837 352.135,19.652 353.121,19.652 L354.447,19.652 C355.908,19.652 357.234,18.326 357.643,16.967 L357.643,15.913 Z M359.988,21.998 L358.356,21.998 C358.118,21.998 358.016,21.896 358.016,21.658 L358.016,20.706 C358.016,20.332 357.676,20.162 357.404,20.434 C356.418,21.42 355.229,21.998 354.447,21.998 L353.121,21.998 C350.674,21.998 348.701,20.366 348.701,17.884 L348.701,17.681 C348.701,15.199 350.674,13.601 353.121,13.601 L357.303,13.601 C357.541,13.601 357.643,13.499 357.643,13.261 L357.643,12.105 C357.643,10.269 356.146,8.841 354.277,8.841 C353.154,8.841 352.033,9.42 351.285,10.711 C351.184,10.881 351.014,10.949 350.809,10.847 L349.075,9.929 C348.871,9.827 348.803,9.657 348.939,9.453 C349.313,8.841 349.756,8.264 350.333,7.821 C351.285,7.04 352.576,6.53 354.277,6.53 C357.948,6.53 360.328,8.739 360.328,12.105 L360.328,21.658 C360.328,21.896 360.227,21.998 359.988,21.998 L359.988,21.998 Z" id="Fill-15" fill="#0DFFC1"></path>
            <path d="M371.48,22.304 C370.086,22.168 368.93,21.692 368.047,21.012 C366.789,19.992 366.074,18.497 366.074,16.661 L366.074,9.487 C366.074,9.25 365.973,9.148 365.734,9.148 L363.83,9.148 C363.593,9.148 363.49,9.046 363.49,8.808 L363.49,7.89 L367.367,3.81 C367.4,3.776 367.537,3.708 367.604,3.708 L368.42,3.708 C368.658,3.708 368.76,3.81 368.76,4.048 L368.76,6.496 C368.76,6.733 368.862,6.836 369.1,6.836 L371.514,6.836 C371.752,6.836 371.854,6.938 371.854,7.176 L371.854,8.808 C371.854,9.046 371.752,9.148 371.514,9.148 L369.1,9.148 C368.862,9.148 368.76,9.25 368.76,9.487 L368.76,16.661 C368.76,18.225 369.848,19.585 371.582,19.924 C371.752,19.958 371.854,20.06 371.854,20.264 L371.854,21.964 C371.854,22.202 371.719,22.338 371.48,22.304" id="Fill-16" fill="#0DFFC1"></path>
            <path d="M378.79,21.998 L376.785,21.998 C376.547,21.998 376.444,21.896 376.444,21.658 L376.444,7.176 C376.444,6.938 376.547,6.836 376.785,6.836 L378.79,6.836 C379.028,6.836 379.131,6.938 379.131,7.176 L379.131,21.658 C379.131,21.896 379.028,21.998 378.79,21.998 Z M377.771,3.606 C376.818,3.606 376.104,2.858 376.104,1.906 C376.104,0.988 376.853,0.24 377.771,0.24 C378.723,0.24 379.471,0.954 379.471,1.906 C379.471,2.824 378.723,3.606 377.771,3.606 L377.771,3.606 Z" id="Fill-17" fill="#0DFFC1"></path>
            <path d="M392.798,11.969 C392.798,10.235 391.404,8.808 389.467,8.808 C387.358,8.808 386.135,10.303 386.135,12.139 L386.135,16.865 C386.135,18.599 387.528,20.026 389.467,20.026 C391.574,20.026 392.798,18.53 392.798,16.694 L392.798,11.969 Z M389.467,22.338 C385.862,22.338 383.449,19.958 383.449,16.694 L383.449,12.139 C383.449,8.909 385.795,6.496 389.467,6.496 C393.07,6.496 395.483,8.876 395.483,12.139 L395.483,16.694 C395.483,19.924 393.138,22.338 389.467,22.338 L389.467,22.338 Z" id="Fill-18" fill="#0DFFC1"></path>
            <path d="M412.211,21.998 L410.205,21.998 C409.968,21.998 409.865,21.896 409.865,21.658 L409.865,12.479 C409.865,10.677 408.336,9.148 406.5,9.148 C404.664,9.148 403.168,10.643 403.168,12.479 L403.168,21.658 C403.168,21.896 403.066,21.998 402.828,21.998 L400.822,21.998 C400.584,21.998 400.482,21.896 400.482,21.658 L400.482,7.176 C400.482,6.938 400.584,6.836 400.822,6.836 L402.488,6.836 C402.727,6.836 402.828,6.938 402.828,7.176 L402.828,8.06 C402.828,8.434 403.168,8.604 403.406,8.297 C404.324,7.21 405.445,6.836 406.5,6.836 C410.172,6.836 412.551,9.148 412.551,12.479 L412.551,21.658 C412.551,21.896 412.449,21.998 412.211,21.998" id="Fill-19" fill="#0DFFC1"></path>
            <path d="M423.398,22.338 L422.378,22.338 C420.475,22.338 419.217,21.794 418.332,21.012 C417.754,20.536 417.346,19.924 417.041,19.346 C416.938,19.143 417.006,19.006 417.211,18.904 L418.842,18.089 C419.047,17.986 419.182,18.055 419.284,18.225 C419.896,19.346 421.12,20.129 422.378,20.129 L423.398,20.129 C425.301,20.129 426.254,19.041 426.254,17.782 C426.254,16.117 424.043,15.879 421.664,15.403 C419.42,14.961 417.006,13.975 417.006,11.119 C417.006,8.026 419.318,6.496 422.378,6.496 L423.398,6.496 C425.166,6.496 426.424,6.972 427.307,7.686 C427.953,8.195 428.395,8.808 428.735,9.42 C428.838,9.623 428.77,9.794 428.564,9.896 L426.934,10.711 C426.764,10.813 426.594,10.745 426.491,10.575 C425.812,9.453 424.724,8.706 423.398,8.706 L422.378,8.706 C420.406,8.706 419.624,9.657 419.624,10.779 C419.624,12.649 421.834,12.819 424.146,13.295 C426.729,13.839 428.905,14.689 428.905,17.443 C428.905,20.129 427.035,22.338 423.398,22.338" id="Fill-20" fill="#0DFFC1"></path>
            <path d="M444.578,21.998 L433.122,21.998 C432.782,21.998 432.646,21.794 432.816,21.488 L439.887,9.692 C440.057,9.385 439.922,9.181 439.582,9.181 L433.258,9.181 C433.02,9.181 432.918,9.079 432.918,8.841 L432.918,7.21 C432.918,6.972 433.02,6.87 433.258,6.87 L444.035,6.87 C444.375,6.87 444.511,7.074 444.341,7.379 L437.236,19.143 C437.065,19.448 437.201,19.652 437.541,19.652 L444.578,19.652 C444.816,19.652 444.919,19.755 444.919,19.992 L444.919,21.658 C444.919,21.896 444.816,21.998 444.578,21.998" id="Fill-21" fill="#0DFFC1"></path>
            <path d="M457.227,11.969 C457.227,10.235 455.832,8.808 453.895,8.808 C451.787,8.808 450.563,10.303 450.563,12.139 L450.563,12.513 C450.563,12.683 450.732,12.717 450.902,12.717 L456.887,12.717 C457.125,12.717 457.227,12.615 457.227,12.377 L457.227,11.969 Z M459.572,14.723 L450.902,14.723 C450.665,14.723 450.563,14.825 450.563,15.063 L450.563,16.661 C450.563,18.463 452.059,19.992 453.895,19.992 C455.051,19.992 456.207,19.313 456.92,18.055 C457.022,17.884 457.192,17.817 457.362,17.919 L459.164,18.837 C459.368,18.939 459.402,19.074 459.301,19.278 C458.994,19.822 458.654,20.366 458.178,20.808 C457.26,21.726 455.935,22.338 453.895,22.338 C450.223,22.338 447.877,20.026 447.877,16.661 L447.877,12.139 C447.877,8.909 450.223,6.496 453.895,6.496 C457.498,6.496 459.912,8.876 459.912,12.139 L459.912,14.383 C459.912,14.621 459.811,14.723 459.572,14.723 L459.572,14.723 Z" id="Fill-22" fill="#0DFFC1"></path>
            <path d="M475.96,21.998 L473.954,21.998 C473.717,21.998 473.614,21.896 473.614,21.658 L473.614,12.479 C473.614,10.677 472.084,9.148 470.248,9.148 C468.412,9.148 466.917,10.643 466.917,12.479 L466.917,21.658 C466.917,21.896 466.814,21.998 466.576,21.998 L464.57,21.998 C464.333,21.998 464.23,21.896 464.23,21.658 L464.23,7.176 C464.23,6.938 464.333,6.836 464.57,6.836 L466.236,6.836 C466.475,6.836 466.576,6.938 466.576,7.176 L466.576,8.06 C466.576,8.434 466.917,8.604 467.154,8.297 C468.072,7.21 469.195,6.836 470.248,6.836 C473.92,6.836 476.3,9.148 476.3,12.479 L476.3,21.658 C476.3,21.896 476.197,21.998 475.96,21.998" id="Fill-23" fill="#0DFFC1"></path>
            <path d="M487.452,22.304 C486.059,22.168 484.902,21.692 484.019,21.012 C482.761,19.992 482.047,18.497 482.047,16.661 L482.047,9.487 C482.047,9.25 481.945,9.148 481.707,9.148 L479.803,9.148 C479.564,9.148 479.463,9.046 479.463,8.808 L479.463,7.89 L483.338,3.81 C483.373,3.776 483.509,3.708 483.576,3.708 L484.393,3.708 C484.631,3.708 484.732,3.81 484.732,4.048 L484.732,6.496 C484.732,6.733 484.834,6.836 485.072,6.836 L487.486,6.836 C487.725,6.836 487.826,6.938 487.826,7.176 L487.826,8.808 C487.826,9.046 487.725,9.148 487.486,9.148 L485.072,9.148 C484.834,9.148 484.732,9.25 484.732,9.487 L484.732,16.661 C484.732,18.225 485.82,19.585 487.555,19.924 C487.725,19.958 487.826,20.06 487.826,20.264 L487.826,21.964 C487.826,22.202 487.689,22.338 487.452,22.304" id="Fill-24" fill="#0DFFC1"></path>
            <path d="M499.047,9.657 C498.877,9.589 498.639,9.555 498.435,9.555 C496.564,9.555 495.104,10.813 495.104,12.819 L495.104,21.658 C495.104,21.896 495.001,21.998 494.763,21.998 L492.758,21.998 C492.52,21.998 492.417,21.896 492.417,21.658 L492.417,7.176 C492.417,6.938 492.52,6.836 492.758,6.836 L494.423,6.836 C494.66,6.836 494.763,6.938 494.763,7.176 L494.763,8.569 C494.763,8.943 495.104,9.113 495.341,8.808 C496.225,7.549 497.381,6.836 498.435,6.836 L499.183,6.836 C499.42,6.836 499.488,6.972 499.488,7.21 L499.488,9.352 C499.488,9.623 499.318,9.759 499.047,9.657" id="Fill-25" fill="#0DFFC1"></path>
            <path d="M514.277,21.998 L512.646,21.998 C512.408,21.998 512.306,21.896 512.306,21.658 L512.306,20.706 C512.306,20.332 511.932,20.162 511.693,20.468 C510.81,21.556 509.654,21.998 508.6,21.998 C504.928,21.998 502.582,19.652 502.582,16.321 L502.582,7.176 C502.582,6.938 502.685,6.836 502.922,6.836 L504.928,6.836 C505.166,6.836 505.268,6.938 505.268,7.176 L505.268,16.321 C505.268,18.123 506.764,19.652 508.6,19.652 C510.436,19.652 511.966,18.191 511.966,16.321 L511.966,7.176 C511.966,6.938 512.068,6.836 512.306,6.836 L514.277,6.836 C514.516,6.836 514.617,6.938 514.617,7.176 L514.617,21.658 C514.617,21.896 514.516,21.998 514.277,21.998" id="Fill-26" fill="#0DFFC1"></path>
            <path d="M539.13,21.998 L537.124,21.998 C536.887,21.998 536.784,21.896 536.784,21.658 L536.784,12.479 C536.784,10.643 535.221,9.148 533.793,9.148 C532.467,9.148 530.801,10.61 530.801,12.479 L530.801,21.658 C530.801,21.896 530.699,21.998 530.461,21.998 L528.455,21.998 C528.217,21.998 528.115,21.896 528.115,21.658 L528.115,12.479 C528.115,10.643 526.551,9.148 525.123,9.148 C523.764,9.148 522.132,10.61 522.132,12.479 L522.132,21.658 C522.132,21.896 522.029,21.998 521.791,21.998 L519.785,21.998 C519.548,21.998 519.445,21.896 519.445,21.658 L519.445,7.176 C519.445,6.938 519.548,6.836 519.785,6.836 L521.451,6.836 C521.689,6.836 521.791,6.938 521.791,7.176 L521.791,8.06 C521.791,8.434 522.063,8.604 522.336,8.332 C523.287,7.277 524.443,6.836 525.463,6.836 C526.688,6.836 528.217,7.346 529.203,8.604 C529.373,8.841 529.576,8.808 529.747,8.604 C530.835,7.379 532.263,6.836 533.793,6.836 C537.021,6.836 539.47,9.148 539.47,12.479 L539.47,21.658 C539.47,21.896 539.367,21.998 539.13,21.998" id="Fill-27" fill="#0DFFC1"></path>
            <path d="M186.726,50.807 C186.726,49.005 185.23,47.509 183.36,47.509 L179.315,47.509 C179.077,47.509 178.975,47.611 178.975,47.85 L178.975,54.513 C178.975,54.75 179.077,54.853 179.315,54.853 L183.36,54.853 C185.196,54.853 186.726,53.391 186.726,51.521 L186.726,50.807 Z M186.726,41.458 C186.726,39.656 185.23,38.126 183.36,38.126 L179.315,38.126 C179.077,38.126 178.975,38.229 178.975,38.466 L178.975,44.823 C178.975,45.062 179.077,45.163 179.315,45.163 L183.36,45.163 C185.196,45.163 186.726,43.668 186.726,41.798 L186.726,41.458 Z M183.36,57.198 L176.663,57.198 C176.425,57.198 176.323,57.097 176.323,56.859 L176.323,36.12 C176.323,35.883 176.425,35.78 176.663,35.78 L183.36,35.78 C187.032,35.78 189.377,38.126 189.377,41.798 L189.377,42.138 C189.377,43.464 188.324,45.3 187.066,46.047 C186.76,46.218 186.76,46.455 187.032,46.625 C188.188,47.339 189.377,49.039 189.377,50.705 L189.377,51.215 C189.377,54.887 187.032,57.198 183.36,57.198 L183.36,57.198 Z" id="Fill-28" fill="#0DFFC1"></path>
            <path d="M202.502,51.113 C202.502,50.875 202.4,50.773 202.162,50.773 L197.98,50.773 C196.994,50.773 196.212,51.555 196.212,52.541 L196.212,53.085 C196.212,54.036 196.994,54.853 197.98,54.853 L199.306,54.853 C200.768,54.853 202.094,53.526 202.502,52.167 L202.502,51.113 Z M204.848,57.198 L203.216,57.198 C202.978,57.198 202.875,57.097 202.875,56.859 L202.875,55.906 C202.875,55.532 202.536,55.362 202.264,55.635 C201.278,56.62 200.088,57.198 199.306,57.198 L197.98,57.198 C195.533,57.198 193.561,55.567 193.561,53.085 L193.561,52.881 C193.561,50.399 195.533,48.801 197.98,48.801 L202.162,48.801 C202.4,48.801 202.502,48.699 202.502,48.461 L202.502,47.306 C202.502,45.47 201.006,44.042 199.136,44.042 C198.014,44.042 196.892,44.619 196.145,45.911 C196.042,46.081 195.873,46.15 195.668,46.047 L193.935,45.13 C193.73,45.027 193.663,44.858 193.799,44.653 C194.172,44.042 194.615,43.464 195.192,43.022 C196.145,42.24 197.436,41.73 199.136,41.73 C202.808,41.73 205.188,43.94 205.188,47.306 L205.188,56.859 C205.188,57.097 205.085,57.198 204.848,57.198 L204.848,57.198 Z" id="Fill-29" fill="#0DFFC1"></path>
            <path d="M219.229,47.68 C219.229,45.877 217.7,44.348 215.864,44.348 C214.028,44.348 212.532,45.844 212.532,47.68 L212.532,51.521 C212.532,53.322 214.028,54.853 215.864,54.853 C217.666,54.853 219.229,53.357 219.229,51.521 L219.229,47.68 Z M215.864,57.198 C215.014,57.198 213.756,56.756 212.77,55.702 C212.498,55.431 212.192,55.532 212.192,55.941 L212.192,56.859 C212.192,57.097 212.09,57.198 211.852,57.198 L210.186,57.198 C209.948,57.198 209.846,57.097 209.846,56.859 L209.846,36.12 C209.846,35.883 209.948,35.78 210.186,35.78 L212.192,35.78 C212.43,35.78 212.532,35.883 212.532,36.12 L212.532,43.226 C212.532,43.6 212.872,43.735 213.11,43.464 C214.028,42.443 215.218,42.036 216.204,42.036 C219.365,42.036 221.915,44.348 221.915,47.68 L221.915,51.521 C221.915,54.853 219.535,57.198 215.864,57.198 L215.864,57.198 Z" id="Fill-30" fill="#0DFFC1"></path>
            <path d="M235.073,47.169 C235.073,45.436 233.679,44.008 231.742,44.008 C229.634,44.008 228.41,45.504 228.41,47.339 L228.41,47.713 C228.41,47.883 228.58,47.917 228.75,47.917 L234.733,47.917 C234.971,47.917 235.073,47.816 235.073,47.577 L235.073,47.169 Z M237.419,49.923 L228.75,49.923 C228.512,49.923 228.41,50.026 228.41,50.263 L228.41,51.86 C228.41,53.662 229.906,55.193 231.742,55.193 C232.897,55.193 234.053,54.513 234.767,53.255 C234.869,53.085 235.039,53.017 235.209,53.119 L237.011,54.036 C237.215,54.139 237.249,54.275 237.147,54.479 C236.841,55.023 236.501,55.567 236.025,56.009 C235.107,56.926 233.781,57.538 231.742,57.538 C228.07,57.538 225.724,55.227 225.724,51.86 L225.724,47.339 C225.724,44.11 228.07,41.695 231.742,41.695 C235.345,41.695 237.759,44.075 237.759,47.339 L237.759,49.583 C237.759,49.821 237.657,49.923 237.419,49.923 L237.419,49.923 Z" id="Fill-31" fill="#0DFFC1"></path>
            <path d="M244.423,57.198 L242.417,57.198 C242.18,57.198 242.078,57.097 242.078,56.859 L242.078,36.12 C242.078,35.883 242.18,35.78 242.417,35.78 L244.423,35.78 C244.662,35.78 244.764,35.883 244.764,36.12 L244.764,56.859 C244.764,57.097 244.662,57.198 244.423,57.198" id="Fill-32" fill="#0DFFC1"></path>
            <path d="M255.779,57.538 L254.759,57.538 C252.855,57.538 251.598,56.994 250.713,56.212 C250.136,55.736 249.728,55.124 249.422,54.547 C249.32,54.343 249.388,54.207 249.592,54.105 L251.224,53.289 C251.427,53.187 251.563,53.255 251.666,53.425 C252.277,54.547 253.501,55.328 254.759,55.328 L255.779,55.328 C257.683,55.328 258.635,54.24 258.635,52.983 C258.635,51.317 256.425,51.079 254.045,50.603 C251.801,50.161 249.388,49.175 249.388,46.319 C249.388,43.226 251.7,41.695 254.759,41.695 L255.779,41.695 C257.547,41.695 258.805,42.172 259.688,42.886 C260.334,43.396 260.776,44.008 261.117,44.619 C261.218,44.823 261.15,44.993 260.947,45.096 L259.315,45.911 C259.145,46.014 258.975,45.945 258.873,45.776 C258.193,44.653 257.105,43.905 255.779,43.905 L254.759,43.905 C252.788,43.905 252.005,44.858 252.005,45.98 C252.005,47.85 254.215,48.02 256.527,48.495 C259.111,49.039 261.287,49.889 261.287,52.643 C261.287,55.328 259.417,57.538 255.779,57.538" id="Fill-33" fill="#0DFFC1"></path>
            <path d="M274.58,47.68 C274.58,45.877 273.05,44.348 271.214,44.348 C269.378,44.348 267.883,45.844 267.883,47.68 L267.883,51.521 C267.883,53.322 269.378,54.853 271.214,54.853 C273.016,54.853 274.58,53.357 274.58,51.521 L274.58,47.68 Z M271.214,57.198 C270.364,57.198 269.106,56.756 268.121,55.702 C267.849,55.431 267.542,55.532 267.542,55.941 L267.542,56.859 C267.542,57.097 267.441,57.198 267.203,57.198 L265.537,57.198 C265.299,57.198 265.197,57.097 265.197,56.859 L265.197,36.12 C265.197,35.883 265.299,35.78 265.537,35.78 L267.542,35.78 C267.781,35.78 267.883,35.883 267.883,36.12 L267.883,43.226 C267.883,43.6 268.223,43.735 268.46,43.464 C269.378,42.443 270.568,42.036 271.554,42.036 C274.716,42.036 277.266,44.348 277.266,47.68 L277.266,51.521 C277.266,54.853 274.886,57.198 271.214,57.198 L271.214,57.198 Z" id="Fill-34" fill="#0DFFC1"></path>
            <path d="M291.104,47.169 C291.104,45.436 289.709,44.008 287.772,44.008 C285.664,44.008 284.44,45.504 284.44,47.339 L284.44,47.713 C284.44,47.883 284.61,47.917 284.78,47.917 L290.763,47.917 C291.001,47.917 291.104,47.816 291.104,47.577 L291.104,47.169 Z M293.449,49.923 L284.78,49.923 C284.542,49.923 284.44,50.026 284.44,50.263 L284.44,51.86 C284.44,53.662 285.936,55.193 287.772,55.193 C288.928,55.193 290.083,54.513 290.797,53.255 C290.899,53.085 291.069,53.017 291.239,53.119 L293.041,54.036 C293.245,54.139 293.279,54.275 293.177,54.479 C292.871,55.023 292.531,55.567 292.055,56.009 C291.137,56.926 289.812,57.538 287.772,57.538 C284.1,57.538 281.754,55.227 281.754,51.86 L281.754,47.339 C281.754,44.11 284.1,41.695 287.772,41.695 C291.375,41.695 293.789,44.075 293.789,47.339 L293.789,49.583 C293.789,49.821 293.687,49.923 293.449,49.923 L293.449,49.923 Z" id="Fill-35" fill="#0DFFC1"></path>
            <path d="M304.738,44.858 C304.568,44.789 304.33,44.756 304.126,44.756 C302.256,44.756 300.794,46.014 300.794,48.02 L300.794,56.859 C300.794,57.097 300.692,57.198 300.454,57.198 L298.449,57.198 C298.21,57.198 298.108,57.097 298.108,56.859 L298.108,42.376 C298.108,42.138 298.21,42.036 298.449,42.036 L300.114,42.036 C300.352,42.036 300.454,42.138 300.454,42.376 L300.454,43.77 C300.454,44.144 300.794,44.314 301.032,44.008 C301.916,42.75 303.072,42.036 304.126,42.036 L304.874,42.036 C305.112,42.036 305.18,42.172 305.18,42.41 L305.18,44.552 C305.18,44.823 305.01,44.959 304.738,44.858" id="Fill-36" fill="#0DFFC1"></path>
            <path d="M318.337,60.462 C318.337,59.51 317.521,58.762 316.569,58.762 L311.877,58.762 C310.926,58.762 310.11,59.476 310.11,60.462 L310.11,60.735 C310.11,61.72 310.858,62.502 311.877,62.502 L316.569,62.502 C317.589,62.502 318.337,61.72 318.337,60.735 L318.337,60.462 Z M316.773,47.68 C316.773,45.877 315.277,44.348 313.441,44.348 C311.605,44.348 310.11,45.844 310.11,47.68 L310.11,48.02 C310.11,49.821 311.605,51.351 313.441,51.351 C315.243,51.351 316.773,49.856 316.773,48.02 L316.773,47.68 Z M316.569,64.848 L311.877,64.848 C309.43,64.848 307.424,63.25 307.424,60.735 L307.424,60.462 C307.424,59.136 308.24,58.116 309.43,57.267 C309.6,57.13 309.668,56.994 309.566,56.824 C309.226,56.179 309.022,55.668 309.022,55.023 C309.022,54.24 309.226,53.561 309.702,52.948 C309.838,52.778 309.804,52.609 309.634,52.473 C308.206,51.351 307.424,49.856 307.424,48.02 L307.424,47.68 C307.424,44.348 310.076,42.036 313.441,42.036 C314.291,42.036 315.516,42.443 316.535,43.531 C316.807,43.804 317.146,43.701 317.146,43.294 L317.146,42.376 C317.146,42.138 317.249,42.036 317.486,42.036 L319.119,42.036 C319.357,42.036 319.459,42.138 319.459,42.376 L319.459,48.02 C319.459,51.351 316.807,53.696 313.441,53.696 C313.135,53.696 312.693,53.662 312.388,53.629 C311.844,53.866 311.333,54.41 311.333,55.023 C311.333,55.635 311.776,56.28 312.388,56.416 L316.569,56.416 C319.051,56.416 321.023,57.981 321.023,60.462 L321.023,60.735 C321.023,63.25 319.051,64.848 316.569,64.848 L316.569,64.848 Z" id="Fill-37" fill="#0DFFC1"></path>
        </g>
    </g>
</svg>